# This file uses centimeters as units for non-parametric coordinates.

mtllib bulletBoi.mtl
g default
v 0.951057 -1.000000 -0.309017
v 0.809018 -1.000000 -0.587786
v 0.587786 -1.000000 -0.809017
v 0.309017 -1.000000 -0.951057
v 0.000000 -1.000000 -1.000000
v -0.309017 -1.000000 -0.951057
v -0.587785 -1.000000 -0.809017
v -0.809017 -1.000000 -0.587785
v -0.951057 -1.000000 -0.309017
v -1.000000 -1.000000 0.000000
v -0.951057 -1.000000 0.309017
v -0.809017 -1.000000 0.587785
v -0.587785 -1.000000 0.809017
v -0.309017 -1.000000 0.951057
v -0.000000 -1.000000 1.000000
v 0.309017 -1.000000 0.951057
v 0.587785 -1.000000 0.809017
v 0.809017 -1.000000 0.587785
v 0.951057 -1.000000 0.309017
v 1.000000 -1.000000 0.000000
v 0.951057 1.000000 -0.309017
v 0.809018 1.000000 -0.587786
v 0.587786 1.000000 -0.809017
v 0.309017 1.000000 -0.951057
v 0.000000 1.000000 -1.000000
v -0.309017 1.000000 -0.951057
v -0.587785 1.000000 -0.809017
v -0.809017 1.000000 -0.587785
v -0.951057 1.000000 -0.309017
v -1.000000 1.000000 0.000000
v -0.951057 1.000000 0.309017
v -0.809017 1.000000 0.587785
v -0.587785 1.000000 0.809017
v -0.309017 1.000000 0.951057
v -0.000000 1.000000 1.000000
v 0.309017 1.000000 0.951057
v 0.587785 1.000000 0.809017
v 0.809017 1.000000 0.587785
v 0.951057 1.000000 0.309017
v 1.000000 1.000000 0.000000
v 0.918650 1.258819 -0.298488
v 0.781450 1.258819 -0.567757
v 0.567757 1.258819 -0.781450
v 0.298488 1.258819 -0.918650
v -0.000000 1.258819 -0.965926
v -0.298488 1.258819 -0.918650
v -0.567757 1.258819 -0.781450
v -0.781450 1.258819 -0.567757
v -0.918650 1.258819 -0.298488
v -0.965926 1.258819 0.000000
v -0.918650 1.258819 0.298488
v -0.781450 1.258819 0.567757
v -0.567757 1.258819 0.781450
v -0.298488 1.258819 0.918650
v 0.000000 1.258819 0.965926
v 0.298488 1.258819 0.918650
v 0.567757 1.258819 0.781450
v 0.781450 1.258819 0.567757
v 0.918650 1.258819 0.298488
v 0.965926 1.258819 0.000000
v 0.823639 1.500000 -0.267617
v 0.700629 1.500000 -0.509037
v 0.509037 1.500000 -0.700629
v 0.267617 1.500000 -0.823639
v -0.000000 1.500000 -0.866025
v -0.267617 1.500000 -0.823639
v -0.509037 1.500000 -0.700629
v -0.700629 1.500000 -0.509037
v -0.823639 1.500000 -0.267617
v -0.866025 1.500000 0.000000
v -0.823639 1.500000 0.267617
v -0.700629 1.500000 0.509037
v -0.509037 1.500000 0.700629
v -0.267617 1.500000 0.823639
v 0.000000 1.500000 0.866025
v 0.267617 1.500000 0.823639
v 0.509037 1.500000 0.700629
v 0.700629 1.500000 0.509037
v 0.823639 1.500000 0.267617
v 0.866025 1.500000 0.000000
v 0.672499 1.707107 -0.218508
v 0.572061 1.707107 -0.415627
v 0.415627 1.707107 -0.572061
v 0.218508 1.707107 -0.672499
v -0.000000 1.707107 -0.707107
v -0.218508 1.707107 -0.672499
v -0.415627 1.707107 -0.572061
v -0.572061 1.707107 -0.415627
v -0.672499 1.707107 -0.218508
v -0.707107 1.707107 0.000000
v -0.672499 1.707107 0.218508
v -0.572061 1.707107 0.415627
v -0.415627 1.707107 0.572061
v -0.218508 1.707107 0.672499
v 0.000000 1.707107 0.707107
v 0.218508 1.707107 0.672499
v 0.415627 1.707107 0.572061
v 0.572061 1.707107 0.415627
v 0.672499 1.707107 0.218508
v 0.707107 1.707107 0.000000
v 0.475528 1.866025 -0.154509
v 0.404509 1.866025 -0.293893
v 0.293893 1.866025 -0.404509
v 0.154509 1.866025 -0.475528
v -0.000000 1.866025 -0.500000
v -0.154509 1.866025 -0.475528
v -0.293893 1.866025 -0.404509
v -0.404509 1.866025 -0.293893
v -0.475528 1.866025 -0.154509
v -0.500000 1.866025 0.000000
v -0.475528 1.866025 0.154509
v -0.404509 1.866025 0.293893
v -0.293893 1.866025 0.404509
v -0.154509 1.866025 0.475528
v 0.000000 1.866025 0.500000
v 0.154509 1.866025 0.475528
v 0.293893 1.866025 0.404509
v 0.404509 1.866025 0.293893
v 0.475528 1.866025 0.154509
v 0.500000 1.866025 0.000000
v 0.246152 1.965926 -0.079979
v 0.209389 1.965926 -0.152130
v 0.152130 1.965926 -0.209389
v 0.079979 1.965926 -0.246152
v -0.000000 1.965926 -0.258819
v -0.079979 1.965926 -0.246152
v -0.152130 1.965926 -0.209389
v -0.209389 1.965926 -0.152130
v -0.246152 1.965926 -0.079979
v -0.258819 1.965926 0.000000
v -0.246152 1.965926 0.079979
v -0.209389 1.965926 0.152130
v -0.152130 1.965926 0.209389
v -0.079979 1.965926 0.246152
v 0.000000 1.965926 0.258819
v 0.079979 1.965926 0.246152
v 0.152130 1.965926 0.209389
v 0.209389 1.965926 0.152130
v 0.246152 1.965926 0.079979
v 0.258819 1.965926 0.000000
v 0.000000 2.000000 0.000000
vt 0.375000 0.312500
vt 0.387500 0.312500
vt 0.400000 0.312500
vt 0.412500 0.312500
vt 0.425000 0.312500
vt 0.437500 0.312500
vt 0.450000 0.312500
vt 0.462500 0.312500
vt 0.475000 0.312500
vt 0.487500 0.312500
vt 0.500000 0.312500
vt 0.512500 0.312500
vt 0.525000 0.312500
vt 0.537500 0.312500
vt 0.550000 0.312500
vt 0.562500 0.312500
vt 0.575000 0.312500
vt 0.587500 0.312500
vt 0.600000 0.312500
vt 0.612500 0.312500
vt 0.625000 0.312500
vt 0.375000 0.688440
vt 0.387500 0.688440
vt 0.400000 0.688440
vt 0.412500 0.688440
vt 0.425000 0.688440
vt 0.437500 0.688440
vt 0.450000 0.688440
vt 0.462500 0.688440
vt 0.475000 0.688440
vt 0.487500 0.688440
vt 0.500000 0.688440
vt 0.512500 0.688440
vt 0.525000 0.688440
vt 0.537500 0.688440
vt 0.550000 0.688440
vt 0.562500 0.688440
vt 0.575000 0.688440
vt 0.587500 0.688440
vt 0.600000 0.688440
vt 0.612500 0.688440
vt 0.625000 0.688440
vt 0.648603 0.795466
vt 0.626409 0.751908
vt 0.591842 0.717341
vt 0.548284 0.695147
vt 0.500000 0.687500
vt 0.451716 0.695147
vt 0.408159 0.717341
vt 0.373591 0.751909
vt 0.351397 0.795466
vt 0.343750 0.843750
vt 0.351397 0.892034
vt 0.373591 0.935591
vt 0.408159 0.970159
vt 0.451716 0.992353
vt 0.500000 1.000000
vt 0.548284 0.992353
vt 0.591841 0.970159
vt 0.626409 0.935591
vt 0.648603 0.892034
vt 0.656250 0.843750
vt 0.623836 0.803513
vt 0.605341 0.767215
vt 0.576535 0.738409
vt 0.540237 0.719914
vt 0.500000 0.713542
vt 0.459763 0.719914
vt 0.423465 0.738409
vt 0.394659 0.767215
vt 0.376164 0.803513
vt 0.369792 0.843750
vt 0.376164 0.883987
vt 0.394659 0.920285
vt 0.423465 0.949091
vt 0.459763 0.967586
vt 0.500000 0.973958
vt 0.540237 0.967586
vt 0.576535 0.949091
vt 0.605341 0.920285
vt 0.623836 0.883987
vt 0.630208 0.843750
vt 0.599068 0.811561
vt 0.584273 0.782522
vt 0.561228 0.759477
vt 0.532189 0.744682
vt 0.500000 0.739583
vt 0.467811 0.744682
vt 0.438772 0.759477
vt 0.415727 0.782522
vt 0.400932 0.811561
vt 0.395833 0.843750
vt 0.400932 0.875939
vt 0.415727 0.904978
vt 0.438772 0.928023
vt 0.467811 0.942818
vt 0.500000 0.947917
vt 0.532189 0.942818
vt 0.561228 0.928023
vt 0.584273 0.904978
vt 0.599068 0.875939
vt 0.604167 0.843750
vt 0.574301 0.819608
vt 0.563205 0.797829
vt 0.545921 0.780545
vt 0.524142 0.769449
vt 0.500000 0.765625
vt 0.475858 0.769449
vt 0.454079 0.780546
vt 0.436796 0.797829
vt 0.425699 0.819608
vt 0.421875 0.843750
vt 0.425699 0.867892
vt 0.436796 0.889671
vt 0.454079 0.906954
vt 0.475858 0.918051
vt 0.500000 0.921875
vt 0.524142 0.918051
vt 0.545921 0.906954
vt 0.563204 0.889671
vt 0.574301 0.867892
vt 0.578125 0.843750
vt 0.549534 0.827655
vt 0.542136 0.813136
vt 0.530614 0.801614
vt 0.516095 0.794216
vt 0.500000 0.791667
vt 0.483905 0.794216
vt 0.469386 0.801614
vt 0.457864 0.813136
vt 0.450466 0.827655
vt 0.447917 0.843750
vt 0.450466 0.859845
vt 0.457864 0.874364
vt 0.469386 0.885886
vt 0.483905 0.893284
vt 0.500000 0.895833
vt 0.516095 0.893284
vt 0.530614 0.885886
vt 0.542136 0.874364
vt 0.549534 0.859845
vt 0.552083 0.843750
vt 0.524767 0.835703
vt 0.521068 0.828443
vt 0.515307 0.822682
vt 0.508047 0.818983
vt 0.500000 0.817708
vt 0.491953 0.818983
vt 0.484693 0.822682
vt 0.478932 0.828443
vt 0.475233 0.835703
vt 0.473958 0.843750
vt 0.475233 0.851797
vt 0.478932 0.859057
vt 0.484693 0.864818
vt 0.491953 0.868517
vt 0.500000 0.869792
vt 0.508047 0.868517
vt 0.515307 0.864818
vt 0.521068 0.859057
vt 0.524767 0.851797
vt 0.526042 0.843750
vt 0.500000 0.837500
vn 0.951057 0.000000 -0.309016
vn 0.809017 0.000000 -0.587785
vn 0.808930 0.014684 -0.587722
vn 0.950954 0.014684 -0.308983
vn 0.587785 0.000000 -0.809017
vn 0.587722 0.014684 -0.808930
vn 0.309017 0.000000 -0.951057
vn 0.308984 0.014684 -0.950954
vn -0.000000 0.000000 -1.000000
vn -0.000000 0.014684 -0.999892
vn -0.309017 0.000000 -0.951056
vn -0.308984 0.014684 -0.950954
vn -0.587785 0.000000 -0.809017
vn -0.587722 0.014684 -0.808930
vn -0.809017 0.000000 -0.587785
vn -0.808930 0.014684 -0.587722
vn -0.951057 0.000000 -0.309017
vn -0.950954 0.014684 -0.308984
vn -1.000000 0.000000 0.000000
vn -0.999892 0.014684 -0.000000
vn -0.951057 0.000000 0.309017
vn -0.950954 0.014684 0.308984
vn -0.809017 0.000000 0.587785
vn -0.808930 0.014684 0.587722
vn -0.587785 0.000000 0.809017
vn -0.587722 0.014684 0.808930
vn -0.309017 0.000000 0.951057
vn -0.308984 0.014684 0.950954
vn 0.000000 0.000000 1.000000
vn 0.000000 0.014684 0.999892
vn 0.309017 0.000000 0.951057
vn 0.308984 0.014684 0.950954
vn 0.587785 0.000000 0.809017
vn 0.587722 0.014684 0.808930
vn 0.809017 0.000000 0.587785
vn 0.808930 0.014684 0.587722
vn 0.951057 0.000000 0.309017
vn 0.950954 0.014684 0.308984
vn 1.000000 0.000000 0.000001
vn 0.999892 0.014684 0.000001
vn 0.783109 0.251041 -0.568962
vn 0.920601 0.251040 -0.299121
vn 0.568962 0.251041 -0.783110
vn 0.299121 0.251040 -0.920600
vn -0.000000 0.251040 -0.967977
vn -0.299121 0.251040 -0.920600
vn -0.568963 0.251040 -0.783110
vn -0.783110 0.251040 -0.568963
vn -0.920601 0.251040 -0.299121
vn -0.967977 0.251040 -0.000000
vn -0.920601 0.251040 0.299121
vn -0.783110 0.251040 0.568963
vn -0.568963 0.251040 0.783110
vn -0.299121 0.251040 0.920601
vn 0.000000 0.251040 0.967977
vn 0.299121 0.251040 0.920601
vn 0.568963 0.251040 0.783110
vn 0.783110 0.251039 0.568963
vn 0.920601 0.251039 0.299121
vn 0.967977 0.251040 0.000000
vn 0.707217 0.485622 -0.513824
vn 0.831384 0.485622 -0.270133
vn 0.513824 0.485622 -0.707217
vn 0.270133 0.485622 -0.831384
vn 0.000000 0.485622 -0.874169
vn -0.270133 0.485622 -0.831384
vn -0.513824 0.485622 -0.707217
vn -0.707217 0.485622 -0.513824
vn -0.831384 0.485622 -0.270133
vn -0.874169 0.485622 0.000000
vn -0.831384 0.485622 0.270133
vn -0.707217 0.485622 0.513824
vn -0.513824 0.485622 0.707217
vn -0.270133 0.485622 0.831384
vn -0.000000 0.485622 0.874169
vn 0.270133 0.485622 0.831384
vn 0.513824 0.485622 0.707217
vn 0.707217 0.485622 0.513824
vn 0.831384 0.485622 0.270133
vn 0.874169 0.485622 -0.000000
vn 0.586950 0.688211 -0.426445
vn 0.690002 0.688211 -0.224195
vn 0.426445 0.688211 -0.586951
vn 0.224195 0.688211 -0.690002
vn 0.000000 0.688211 -0.725511
vn -0.224195 0.688211 -0.690002
vn -0.426445 0.688211 -0.586951
vn -0.586951 0.688211 -0.426445
vn -0.690002 0.688211 -0.224195
vn -0.725511 0.688211 0.000000
vn -0.690002 0.688211 0.224195
vn -0.586950 0.688211 0.426445
vn -0.426445 0.688211 0.586951
vn -0.224195 0.688211 0.690002
vn -0.000000 0.688211 0.725511
vn 0.224195 0.688211 0.690002
vn 0.426445 0.688211 0.586951
vn 0.586951 0.688211 0.426445
vn 0.690002 0.688211 0.224195
vn 0.725511 0.688211 -0.000000
vn 0.432590 0.845036 -0.314295
vn 0.508539 0.845036 -0.165235
vn 0.314295 0.845036 -0.432590
vn 0.165235 0.845035 -0.508540
vn 0.000000 0.845036 -0.534710
vn -0.165235 0.845035 -0.508540
vn -0.314295 0.845036 -0.432590
vn -0.432590 0.845036 -0.314295
vn -0.508540 0.845036 -0.165234
vn -0.534710 0.845036 0.000000
vn -0.508539 0.845036 0.165235
vn -0.432590 0.845036 0.314295
vn -0.314295 0.845036 0.432590
vn -0.165235 0.845035 0.508540
vn -0.000000 0.845036 0.534710
vn 0.165235 0.845035 0.508540
vn 0.314295 0.845036 0.432590
vn 0.432590 0.845036 0.314295
vn 0.508540 0.845036 0.165234
vn 0.534710 0.845036 0.000000
vn 0.266371 0.944242 -0.193529
vn 0.313138 0.944242 -0.101745
vn 0.193530 0.944242 -0.266370
vn 0.101745 0.944242 -0.313138
vn 0.000000 0.944242 -0.329253
vn -0.101745 0.944242 -0.313138
vn -0.193530 0.944242 -0.266371
vn -0.266371 0.944242 -0.193529
vn -0.313138 0.944242 -0.101744
vn -0.329253 0.944242 0.000000
vn -0.313138 0.944242 0.101745
vn -0.266371 0.944242 0.193529
vn -0.193530 0.944242 0.266370
vn -0.101745 0.944242 0.313138
vn 0.000000 0.944242 0.329253
vn 0.101745 0.944242 0.313138
vn 0.193530 0.944242 0.266371
vn 0.266371 0.944242 0.193529
vn 0.313138 0.944242 0.101744
vn 0.329253 0.944242 -0.000000
vn 0.000000 1.000000 0.000000
vn 0.000000 -1.000000 -0.000000
vn 0.000000 -1.000000 -0.000000
vn 0.000000 -1.000000 -0.000000
vn 0.000000 -1.000000 -0.000000
vn 0.000000 -1.000000 -0.000000
vn 0.000000 -1.000000 -0.000000
vn 0.000000 -1.000000 -0.000000
vn 0.000000 -1.000000 -0.000000
vn 0.000000 -1.000000 -0.000000
vn 0.000000 -1.000000 -0.000000
vn 0.000000 -1.000000 -0.000000
vn 0.000000 -1.000000 -0.000000
vn 0.000000 -1.000000 -0.000000
vn 0.000000 -1.000000 -0.000000
vn 0.000000 -1.000000 -0.000000
vn 0.000000 -1.000000 -0.000000
vn 0.000000 -1.000000 -0.000000
vn 0.000000 -1.000000 -0.000000
vn 0.000000 -1.000000 -0.000000
vn 0.000000 -1.000000 -0.000000
s 1
g pCylinder1
usemtl initialShadingGroup
f 1/1/1 2/2/2 22/23/3 21/22/4
f 2/2/2 3/3/5 23/24/6 22/23/3
f 3/3/5 4/4/7 24/25/8 23/24/6
f 4/4/7 5/5/9 25/26/10 24/25/8
f 5/5/9 6/6/11 26/27/12 25/26/10
f 6/6/11 7/7/13 27/28/14 26/27/12
f 7/7/13 8/8/15 28/29/16 27/28/14
f 8/8/15 9/9/17 29/30/18 28/29/16
f 9/9/17 10/10/19 30/31/20 29/30/18
f 10/10/19 11/11/21 31/32/22 30/31/20
f 11/11/21 12/12/23 32/33/24 31/32/22
f 12/12/23 13/13/25 33/34/26 32/33/24
f 13/13/25 14/14/27 34/35/28 33/34/26
f 14/14/27 15/15/29 35/36/30 34/35/28
f 15/15/29 16/16/31 36/37/32 35/36/30
f 16/16/31 17/17/33 37/38/34 36/37/32
f 17/17/33 18/18/35 38/39/36 37/38/34
f 18/18/35 19/19/37 39/40/38 38/39/36
f 19/19/37 20/20/39 40/41/40 39/40/38
f 20/20/39 1/21/1 21/42/4 40/41/40
f 21/61/4 22/60/3 42/80/41 41/81/42
f 22/60/3 23/59/6 43/79/43 42/80/41
f 23/59/6 24/58/8 44/78/44 43/79/43
f 24/58/8 25/57/10 45/77/45 44/78/44
f 25/57/10 26/56/12 46/76/46 45/77/45
f 26/56/12 27/55/14 47/75/47 46/76/46
f 27/55/14 28/54/16 48/74/48 47/75/47
f 28/54/16 29/53/18 49/73/49 48/74/48
f 29/53/18 30/52/20 50/72/50 49/73/49
f 30/52/20 31/51/22 51/71/51 50/72/50
f 31/51/22 32/50/24 52/70/52 51/71/51
f 32/50/24 33/49/26 53/69/53 52/70/52
f 33/49/26 34/48/28 54/68/54 53/69/53
f 34/48/28 35/47/30 55/67/55 54/68/54
f 35/47/30 36/46/32 56/66/56 55/67/55
f 36/46/32 37/45/34 57/65/57 56/66/56
f 37/45/34 38/44/36 58/64/58 57/65/57
f 38/44/36 39/43/38 59/63/59 58/64/58
f 39/43/38 40/62/40 60/82/60 59/63/59
f 40/62/40 21/61/4 41/81/42 60/82/60
f 41/81/42 42/80/41 62/100/61 61/101/62
f 42/80/41 43/79/43 63/99/63 62/100/61
f 43/79/43 44/78/44 64/98/64 63/99/63
f 44/78/44 45/77/45 65/97/65 64/98/64
f 45/77/45 46/76/46 66/96/66 65/97/65
f 46/76/46 47/75/47 67/95/67 66/96/66
f 47/75/47 48/74/48 68/94/68 67/95/67
f 48/74/48 49/73/49 69/93/69 68/94/68
f 49/73/49 50/72/50 70/92/70 69/93/69
f 50/72/50 51/71/51 71/91/71 70/92/70
f 51/71/51 52/70/52 72/90/72 71/91/71
f 52/70/52 53/69/53 73/89/73 72/90/72
f 53/69/53 54/68/54 74/88/74 73/89/73
f 54/68/54 55/67/55 75/87/75 74/88/74
f 55/67/55 56/66/56 76/86/76 75/87/75
f 56/66/56 57/65/57 77/85/77 76/86/76
f 57/65/57 58/64/58 78/84/78 77/85/77
f 58/64/58 59/63/59 79/83/79 78/84/78
f 59/63/59 60/82/60 80/102/80 79/83/79
f 60/82/60 41/81/42 61/101/62 80/102/80
f 61/101/62 62/100/61 82/120/81 81/121/82
f 62/100/61 63/99/63 83/119/83 82/120/81
f 63/99/63 64/98/64 84/118/84 83/119/83
f 64/98/64 65/97/65 85/117/85 84/118/84
f 65/97/65 66/96/66 86/116/86 85/117/85
f 66/96/66 67/95/67 87/115/87 86/116/86
f 67/95/67 68/94/68 88/114/88 87/115/87
f 68/94/68 69/93/69 89/113/89 88/114/88
f 69/93/69 70/92/70 90/112/90 89/113/89
f 70/92/70 71/91/71 91/111/91 90/112/90
f 71/91/71 72/90/72 92/110/92 91/111/91
f 72/90/72 73/89/73 93/109/93 92/110/92
f 73/89/73 74/88/74 94/108/94 93/109/93
f 74/88/74 75/87/75 95/107/95 94/108/94
f 75/87/75 76/86/76 96/106/96 95/107/95
f 76/86/76 77/85/77 97/105/97 96/106/96
f 77/85/77 78/84/78 98/104/98 97/105/97
f 78/84/78 79/83/79 99/103/99 98/104/98
f 79/83/79 80/102/80 100/122/100 99/103/99
f 80/102/80 61/101/62 81/121/82 100/122/100
f 81/121/82 82/120/81 102/140/101 101/141/102
f 82/120/81 83/119/83 103/139/103 102/140/101
f 83/119/83 84/118/84 104/138/104 103/139/103
f 84/118/84 85/117/85 105/137/105 104/138/104
f 85/117/85 86/116/86 106/136/106 105/137/105
f 86/116/86 87/115/87 107/135/107 106/136/106
f 87/115/87 88/114/88 108/134/108 107/135/107
f 88/114/88 89/113/89 109/133/109 108/134/108
f 89/113/89 90/112/90 110/132/110 109/133/109
f 90/112/90 91/111/91 111/131/111 110/132/110
f 91/111/91 92/110/92 112/130/112 111/131/111
f 92/110/92 93/109/93 113/129/113 112/130/112
f 93/109/93 94/108/94 114/128/114 113/129/113
f 94/108/94 95/107/95 115/127/115 114/128/114
f 95/107/95 96/106/96 116/126/116 115/127/115
f 96/106/96 97/105/97 117/125/117 116/126/116
f 97/105/97 98/104/98 118/124/118 117/125/117
f 98/104/98 99/103/99 119/123/119 118/124/118
f 99/103/99 100/122/100 120/142/120 119/123/119
f 100/122/100 81/121/82 101/141/102 120/142/120
f 101/141/102 102/140/101 122/160/121 121/161/122
f 102/140/101 103/139/103 123/159/123 122/160/121
f 103/139/103 104/138/104 124/158/124 123/159/123
f 104/138/104 105/137/105 125/157/125 124/158/124
f 105/137/105 106/136/106 126/156/126 125/157/125
f 106/136/106 107/135/107 127/155/127 126/156/126
f 107/135/107 108/134/108 128/154/128 127/155/127
f 108/134/108 109/133/109 129/153/129 128/154/128
f 109/133/109 110/132/110 130/152/130 129/153/129
f 110/132/110 111/131/111 131/151/131 130/152/130
f 111/131/111 112/130/112 132/150/132 131/151/131
f 112/130/112 113/129/113 133/149/133 132/150/132
f 113/129/113 114/128/114 134/148/134 133/149/133
f 114/128/114 115/127/115 135/147/135 134/148/134
f 115/127/115 116/126/116 136/146/136 135/147/135
f 116/126/116 117/125/117 137/145/137 136/146/136
f 117/125/117 118/124/118 138/144/138 137/145/137
f 118/124/118 119/123/119 139/143/139 138/144/138
f 119/123/119 120/142/120 140/162/140 139/143/139
f 120/142/120 101/141/102 121/161/122 140/162/140
f 121/161/122 122/160/121 141/163/141
f 122/160/121 123/159/123 141/163/141
f 123/159/123 124/158/124 141/163/141
f 124/158/124 125/157/125 141/163/141
f 125/157/125 126/156/126 141/163/141
f 126/156/126 127/155/127 141/163/141
f 127/155/127 128/154/128 141/163/141
f 128/154/128 129/153/129 141/163/141
f 129/153/129 130/152/130 141/163/141
f 130/152/130 131/151/131 141/163/141
f 131/151/131 132/150/132 141/163/141
f 132/150/132 133/149/133 141/163/141
f 133/149/133 134/148/134 141/163/141
f 134/148/134 135/147/135 141/163/141
f 135/147/135 136/146/136 141/163/141
f 136/146/136 137/145/137 141/163/141
f 137/145/137 138/144/138 141/163/141
f 138/144/138 139/143/139 141/163/141
f 139/143/139 140/162/140 141/163/141
f 140/162/140 121/161/122 141/163/141
s off
f 2/2/142 1/21/143 20/20/144 19/19/145 18/18/146 17/17/147 16/16/148 15/15/149 14/14/150 13/13/151 12/12/152 11/11/153 10/10/154 9/9/155 8/8/156 7/7/157 6/6/158 5/5/159 4/4/160 3/3/161
