# This file uses centimeters as units for non-parametric coordinates.

mtllib GravBoi.mtl
g default
v -0.019748 0.500000 1.839695
v 0.019749 0.500000 1.839693
v -0.019748 -0.500000 1.839695
v 0.019749 -0.500000 1.839693
v -0.054246 -0.500000 3.001504
v 0.054248 -0.500000 3.001501
v -0.054246 0.500000 3.001504
v 0.054248 0.500000 3.001501
v 2.680816 0.500000 1.352450
v 2.680816 0.500000 0.352450
v 2.680816 -0.500000 1.352450
v 2.680816 -0.500000 0.352450
v -2.680816 0.500000 1.352450
v -2.680816 0.500000 0.352450
v -2.680816 -0.500000 0.352450
v -2.680816 -0.500000 1.352450
v -0.019748 0.500000 -0.500000
v 0.019749 0.500000 -0.500003
v -0.019748 -0.500000 -0.500000
v 0.019749 -0.500000 -0.500003
v -0.054246 -0.500000 0.661809
v 0.054248 -0.500000 0.661806
v -0.054246 0.500000 0.661809
v 0.054248 0.500000 0.661806
v 2.680816 0.500000 -0.987245
v 2.680816 0.500000 -1.987245
v 2.680816 -0.500000 -0.987245
v 2.680816 -0.500000 -1.987245
v -2.680816 0.500000 -0.987245
v -2.680816 0.500000 -1.987245
v -2.680816 -0.500000 -1.987245
v -2.680816 -0.500000 -0.987245
v -0.019748 0.500000 4.062022
v 0.019749 0.500000 4.062019
v -0.019748 -0.500000 4.062022
v 0.019749 -0.500000 4.062019
v -0.054246 -0.500000 5.223830
v 0.054248 -0.500000 5.223827
v -0.054246 0.500000 5.223830
v 0.054248 0.500000 5.223827
v 2.680816 0.500000 3.574777
v 2.680816 0.500000 2.574777
v 2.680816 -0.500000 3.574777
v 2.680816 -0.500000 2.574777
v -2.680816 0.500000 3.574777
v -2.680816 0.500000 2.574777
v -2.680816 -0.500000 2.574777
v -2.680816 -0.500000 3.574777
vt 0.375000 0.000000
vt 0.625000 0.000000
vt 0.375000 0.250000
vt 0.625000 0.250000
vt 0.375000 0.500000
vt 0.625000 0.500000
vt 0.375000 0.750000
vt 0.625000 0.750000
vt 0.375000 1.000000
vt 0.625000 1.000000
vt 0.875000 0.000000
vt 0.875000 0.250000
vt 0.125000 0.000000
vt 0.125000 0.250000
vt 0.625000 0.000000
vt 0.875000 0.000000
vt 0.875000 0.250000
vt 0.625000 0.250000
vt 0.125000 0.000000
vt 0.375000 0.000000
vt 0.375000 0.250000
vt 0.125000 0.250000
vt 0.375000 0.000000
vt 0.625000 0.000000
vt 0.625000 0.250000
vt 0.375000 0.250000
vt 0.625000 0.500000
vt 0.375000 0.500000
vt 0.625000 0.750000
vt 0.375000 0.750000
vt 0.625000 1.000000
vt 0.375000 1.000000
vt 0.625000 0.000000
vt 0.875000 0.000000
vt 0.875000 0.250000
vt 0.625000 0.250000
vt 0.125000 0.000000
vt 0.375000 0.000000
vt 0.375000 0.250000
vt 0.125000 0.250000
vt 0.875000 0.000000
vt 0.875000 0.250000
vt 0.125000 0.000000
vt 0.125000 0.250000
vt 0.375000 0.000000
vt 0.625000 0.000000
vt 0.625000 0.250000
vt 0.375000 0.250000
vt 0.625000 0.500000
vt 0.375000 0.500000
vt 0.625000 0.750000
vt 0.375000 0.750000
vt 0.625000 1.000000
vt 0.375000 1.000000
vt 0.625000 0.000000
vt 0.875000 0.000000
vt 0.875000 0.250000
vt 0.625000 0.250000
vt 0.125000 0.000000
vt 0.375000 0.000000
vt 0.375000 0.250000
vt 0.125000 0.250000
vt 0.875000 0.000000
vt 0.875000 0.250000
vt 0.125000 0.000000
vt 0.125000 0.250000
vn 0.482400 0.000000 -0.875951
vn -0.482401 0.000000 -0.875951
vn -0.482401 0.000000 -0.875951
vn 0.482400 0.000000 -0.875951
vn 0.000000 -1.000000 0.000000
vn 0.000000 -1.000000 0.000000
vn 0.000000 -1.000000 0.000000
vn 0.000000 -1.000000 0.000000
vn -0.516339 0.000000 0.856384
vn 0.516340 0.000000 0.856384
vn 0.516340 0.000000 0.856384
vn -0.516339 0.000000 0.856384
vn 0.000000 1.000000 0.000000
vn 0.000000 1.000000 0.000000
vn 0.000000 1.000000 0.000000
vn 0.000000 1.000000 0.000000
vn 1.000000 0.000000 0.000000
vn 1.000000 0.000000 0.000000
vn 1.000000 0.000000 0.000000
vn 1.000000 0.000000 0.000000
vn -1.000000 0.000000 0.000000
vn -1.000000 0.000000 0.000000
vn -1.000000 0.000000 0.000000
vn -1.000000 0.000000 0.000000
vn 0.000000 1.000000 0.000000
vn 0.000000 1.000000 0.000000
vn 0.531724 0.000000 0.846918
vn 0.531724 0.000000 0.846918
vn 0.000000 -1.000000 0.000000
vn 0.000000 -1.000000 0.000000
vn -0.487865 0.000000 -0.872919
vn -0.487865 0.000000 -0.872919
vn 0.000000 1.000000 0.000000
vn 0.000000 1.000000 0.000000
vn 0.487866 0.000000 -0.872919
vn 0.487866 0.000000 -0.872919
vn 0.000000 -1.000000 0.000000
vn 0.000000 -1.000000 0.000000
vn -0.531725 0.000000 0.846917
vn -0.531725 0.000000 0.846917
vn 0.482400 0.000000 -0.875951
vn -0.482401 0.000000 -0.875951
vn -0.482401 0.000000 -0.875951
vn 0.482400 0.000000 -0.875951
vn 0.000000 -1.000000 0.000000
vn 0.000000 -1.000000 0.000000
vn 0.000000 -1.000000 0.000000
vn 0.000000 -1.000000 0.000000
vn -0.516339 0.000000 0.856384
vn 0.516340 0.000000 0.856384
vn 0.516340 0.000000 0.856384
vn -0.516339 0.000000 0.856384
vn 0.000000 1.000000 0.000000
vn 0.000000 1.000000 0.000000
vn 0.000000 1.000000 0.000000
vn 0.000000 1.000000 0.000000
vn 1.000000 0.000000 0.000000
vn 1.000000 0.000000 0.000000
vn 1.000000 0.000000 0.000000
vn 1.000000 0.000000 0.000000
vn -1.000000 0.000000 0.000000
vn -1.000000 0.000000 0.000000
vn -1.000000 0.000000 0.000000
vn -1.000000 0.000000 0.000000
vn 0.000000 1.000000 0.000000
vn 0.000000 1.000000 0.000000
vn 0.531724 0.000000 0.846918
vn 0.531724 0.000000 0.846918
vn 0.000000 -1.000000 0.000000
vn 0.000000 -1.000000 0.000000
vn -0.487865 0.000000 -0.872919
vn -0.487865 0.000000 -0.872919
vn 0.000000 1.000000 0.000000
vn 0.000000 1.000000 0.000000
vn 0.487866 0.000000 -0.872919
vn 0.487866 0.000000 -0.872919
vn 0.000000 -1.000000 0.000000
vn 0.000000 -1.000000 0.000000
vn -0.531725 0.000000 0.846917
vn -0.531725 0.000000 0.846917
vn 0.482400 0.000000 -0.875951
vn -0.482401 0.000000 -0.875951
vn -0.482401 0.000000 -0.875951
vn 0.482400 0.000000 -0.875951
vn 0.000000 -1.000000 0.000000
vn 0.000000 -1.000000 0.000000
vn 0.000000 -1.000000 0.000000
vn 0.000000 -1.000000 0.000000
vn -0.516339 0.000000 0.856384
vn 0.516340 0.000000 0.856384
vn 0.516340 0.000000 0.856384
vn -0.516339 0.000000 0.856384
vn 0.000000 1.000000 0.000000
vn 0.000000 1.000000 0.000000
vn 0.000000 1.000000 0.000000
vn 0.000000 1.000000 0.000000
vn 1.000000 0.000000 0.000000
vn 1.000000 0.000000 0.000000
vn 1.000000 0.000000 0.000000
vn 1.000000 0.000000 0.000000
vn -1.000000 0.000000 0.000000
vn -1.000000 0.000000 0.000000
vn -1.000000 0.000000 0.000000
vn -1.000000 0.000000 0.000000
vn 0.000000 1.000000 0.000000
vn 0.000000 1.000000 0.000000
vn 0.531724 0.000000 0.846918
vn 0.531724 0.000000 0.846918
vn 0.000000 -1.000000 0.000000
vn 0.000000 -1.000000 0.000000
vn -0.487865 0.000000 -0.872919
vn -0.487865 0.000000 -0.872919
vn 0.000000 1.000000 0.000000
vn 0.000000 1.000000 0.000000
vn 0.487866 0.000000 -0.872919
vn 0.487866 0.000000 -0.872919
vn 0.000000 -1.000000 0.000000
vn 0.000000 -1.000000 0.000000
vn -0.531725 0.000000 0.846917
vn -0.531725 0.000000 0.846917
s 1
g group_pasted__pCube1
usemtl initialShadingGroup
f 1/1/1 2/2/2 4/4/3 3/3/4
s 2
f 3/3/5 4/4/6 6/6/7 5/5/8
s 3
f 5/5/9 6/6/10 8/8/11 7/7/12
s 4
f 7/7/13 8/8/14 2/10/15 1/9/16
s off
f 10/15/17 9/16/18 11/17/19 12/18/20
f 13/19/21 14/20/22 15/21/23 16/22/24
s 4
f 2/2/15 8/11/14 9/16/25 10/15/26
s 3
f 8/11/11 6/12/10 11/17/27 9/16/28
s 2
f 6/12/7 4/4/6 12/18/29 11/17/30
s 1
f 4/4/3 2/2/2 10/15/31 12/18/32
s 4
f 7/13/13 1/1/16 14/20/33 13/19/34
s 1
f 1/1/1 3/3/4 15/21/35 14/20/36
s 2
f 3/3/5 5/14/8 16/22/37 15/21/38
s 3
f 5/14/9 7/13/12 13/19/39 16/22/40
s 5
f 17/23/41 18/24/42 20/25/43 19/26/44
s 6
f 19/26/45 20/25/46 22/27/47 21/28/48
s 7
f 21/28/49 22/27/50 24/29/51 23/30/52
s 8
f 23/30/53 24/29/54 18/31/55 17/32/56
s off
f 26/33/57 25/34/58 27/35/59 28/36/60
f 29/37/61 30/38/62 31/39/63 32/40/64
s 8
f 18/24/55 24/41/54 25/34/65 26/33/66
s 7
f 24/41/51 22/42/50 27/35/67 25/34/68
s 6
f 22/42/47 20/25/46 28/36/69 27/35/70
s 5
f 20/25/43 18/24/42 26/33/71 28/36/72
s 8
f 23/43/53 17/23/56 30/38/73 29/37/74
s 5
f 17/23/41 19/26/44 31/39/75 30/38/76
s 6
f 19/26/45 21/44/48 32/40/77 31/39/78
s 7
f 21/44/49 23/43/52 29/37/79 32/40/80
s 9
f 33/45/81 34/46/82 36/47/83 35/48/84
s 10
f 35/48/85 36/47/86 38/49/87 37/50/88
s 11
f 37/50/89 38/49/90 40/51/91 39/52/92
s 12
f 39/52/93 40/51/94 34/53/95 33/54/96
s off
f 42/55/97 41/56/98 43/57/99 44/58/100
f 45/59/101 46/60/102 47/61/103 48/62/104
s 12
f 34/46/95 40/63/94 41/56/105 42/55/106
s 11
f 40/63/91 38/64/90 43/57/107 41/56/108
s 10
f 38/64/87 36/47/86 44/58/109 43/57/110
s 9
f 36/47/83 34/46/82 42/55/111 44/58/112
s 12
f 39/65/93 33/45/96 46/60/113 45/59/114
s 9
f 33/45/81 35/48/84 47/61/115 46/60/116
s 10
f 35/48/85 37/66/88 48/62/117 47/61/118
s 11
f 37/66/89 39/65/92 45/59/119 48/62/120
