# This file uses centimeters as units for non-parametric coordinates.

mtllib IceBoi.mtl
g default
v -0.466510 -0.375013 0.250025
v -0.375013 -0.466510 0.250025
v -0.250025 -0.484343 0.250025
v -0.250025 -0.466510 0.375013
v -0.250025 -0.375013 0.466510
v -0.250025 -0.250025 0.484371
v -0.375013 -0.250025 0.466510
v -0.466510 -0.250025 0.375013
v -0.484097 -0.250025 0.250025
v 0.375013 -0.466510 0.250025
v 0.466510 -0.375013 0.250025
v 0.468754 -0.250025 0.250025
v 0.466510 -0.250025 0.375013
v 0.375013 -0.250025 0.466510
v 0.250025 -0.250025 0.484371
v 0.250025 -0.375013 0.466510
v 0.250025 -0.466510 0.375013
v 0.250025 -0.484343 0.250025
v -0.375013 0.466510 0.250025
v -0.466510 0.375013 0.250025
v -0.484097 0.250025 0.250025
v -0.466510 0.250025 0.375013
v -0.375013 0.250025 0.466510
v -0.250025 0.250025 0.484371
v -0.250025 0.375013 0.466510
v -0.250025 0.466510 0.375013
v -0.250025 0.446440 0.250025
v 0.466510 0.375013 0.250025
v 0.375013 0.466510 0.250025
v 0.250025 0.446440 0.250025
v 0.250025 0.466510 0.375013
v 0.218779 0.375013 0.466510
v 0.218779 0.250025 0.484371
v 0.343767 0.250025 0.466510
v 0.466510 0.250025 0.375013
v 0.468754 0.250025 0.250025
v -0.375013 0.250025 -0.466510
v -0.466510 0.250025 -0.375013
v -0.484097 0.250025 -0.250025
v -0.466510 0.375013 -0.250025
v -0.375013 0.466510 -0.250025
v -0.250025 0.446440 -0.250025
v -0.250025 0.466510 -0.375013
v -0.250025 0.375013 -0.466510
v -0.250025 0.250025 -0.455736
v 0.466510 0.250025 -0.375013
v 0.375013 0.250025 -0.466510
v 0.250025 0.250025 -0.455736
v 0.250025 0.375013 -0.466510
v 0.250025 0.466510 -0.375013
v 0.250025 0.446440 -0.250025
v 0.375013 0.466510 -0.250025
v 0.466510 0.375013 -0.250025
v 0.468754 0.250025 -0.250025
v -0.375013 -0.466510 -0.250025
v -0.466510 -0.375013 -0.250025
v -0.484097 -0.250025 -0.250025
v -0.466510 -0.250025 -0.375013
v -0.375013 -0.250025 -0.466510
v -0.250025 -0.250025 -0.455736
v -0.250025 -0.375013 -0.466510
v -0.250025 -0.466510 -0.375013
v -0.250025 -0.484343 -0.250025
v 0.466510 -0.375013 -0.250025
v 0.375013 -0.466510 -0.250025
v 0.250025 -0.484343 -0.250025
v 0.250025 -0.466510 -0.375013
v 0.250025 -0.375013 -0.466510
v 0.250025 -0.250025 -0.455736
v 0.375013 -0.250025 -0.466510
v 0.466510 -0.250025 -0.375013
v 0.468754 -0.250025 -0.250025
v -0.447712 -0.358035 0.358035
v -0.358035 -0.447712 0.358035
v -0.358035 -0.358035 0.447712
v 0.358035 -0.447712 0.358035
v 0.447712 -0.358035 0.358035
v 0.358035 -0.358035 0.447712
v -0.358035 0.447712 0.358035
v -0.447712 0.358035 0.358035
v -0.358035 0.358035 0.447712
v 0.447712 0.358035 0.358035
v 0.358035 0.447712 0.358035
v 0.326790 0.358035 0.447712
v -0.358035 0.358035 -0.447712
v -0.447712 0.358035 -0.358035
v -0.358035 0.447712 -0.358035
v 0.447712 0.358035 -0.358035
v 0.358035 0.358035 -0.447712
v 0.358035 0.447712 -0.358035
v -0.358035 -0.447712 -0.358035
v -0.447712 -0.358035 -0.358035
v -0.358035 -0.358035 -0.447712
v 0.447712 -0.358035 -0.358035
v 0.358035 -0.447712 -0.358035
v 0.358035 -0.358035 -0.447712
vt 0.437494 0.937506
vt 0.437494 0.062494
vt 0.562506 0.937506
vt 0.687494 0.062494
vt 0.437494 0.187506
vt 0.562506 0.187506
vt 0.687494 0.187506
vt 0.187494 0.062494
vt 0.437494 0.437506
vt 0.562506 0.437506
vt 0.812506 0.187506
vt 0.812506 0.062494
vt 0.562506 0.812494
vt 0.437494 0.687506
vt 0.562506 0.687506
vt 0.562506 0.062494
vt 0.437494 0.312494
vt 0.562506 0.312494
vt 0.437494 0.562494
vt 0.562506 0.562494
vt 0.437494 0.812494
vt 0.312506 0.062494
vt 0.312506 0.187506
vt 0.187494 0.187506
vt 0.438134 0.750000
vt 0.314401 -0.000000
vt 0.441353 0.823037
vt 0.422495 -0.000000
vt 0.474165 0.750000
vt 0.429532 0.111061
vt 0.395337 0.154310
vt 0.353542 0.092674
vt 0.558647 0.823037
vt 0.685599 0.000000
vt 0.561866 0.750000
vt 0.646458 0.055008
vt 0.604663 0.058205
vt 0.570468 0.033246
vt 0.525835 0.750000
vt 0.577505 0.000000
vt 0.406986 0.300931
vt 0.336582 0.250000
vt 0.375000 0.288418
vt 0.360040 0.199307
vt 0.400335 0.198677
vt 0.437971 0.229584
vt 0.438187 0.270303
vt 0.625000 0.288418
vt 0.663418 0.250000
vt 0.593014 0.300842
vt 0.561813 0.270050
vt 0.562029 0.229138
vt 0.599665 0.192641
vt 0.639961 0.195337
vt 0.407090 0.550924
vt 0.125000 0.211582
vt 0.375000 0.538418
vt 0.375000 0.461582
vt 0.163418 0.250000
vt 0.407082 0.449060
vt 0.438470 0.479650
vt 0.438470 0.520348
vt 0.625000 0.538418
vt 0.875000 0.211582
vt 0.592910 0.550924
vt 0.561530 0.520348
vt 0.561530 0.479649
vt 0.592918 0.449056
vt 0.836582 0.250000
vt 0.625000 0.461582
vt 0.413413 0.779210
vt 0.159390 -0.000000
vt 0.386463 0.750000
vt 0.375000 0.711582
vt 0.125000 0.038418
vt 0.407180 0.698724
vt 0.438735 0.728546
vt 0.438938 0.768502
vt 0.613537 0.750000
vt 0.840610 0.000000
vt 0.586587 0.779210
vt 0.561062 0.768502
vt 0.561265 0.728546
vt 0.592820 0.698724
vt 0.875000 0.038418
vt 0.625000 0.711582
vt 0.348791 -0.000000
vt 0.449597 0.750000
vt 0.388104 0.000000
vt 0.462701 0.750000
vt 0.395080 0.465482
vt 0.611896 0.000000
vt 0.537299 0.750000
vt 0.651209 0.000000
vt 0.550403 0.750000
vt 0.604920 0.024763
vt 0.411308 0.268919
vt 0.375000 0.250000
vt 0.409621 0.230898
vt 0.625000 0.250000
vt 0.588692 0.268434
vt 0.590379 0.228904
vt 0.411852 0.518957
vt 0.375000 0.500000
vt 0.125000 0.250000
vt 0.411850 0.481036
vt 0.625000 0.500000
vt 0.875000 0.250000
vt 0.588148 0.518957
vt 0.588150 0.481035
vt 0.413941 0.761698
vt 0.375000 0.750000
vt 0.125000 0.000000
vt 0.412360 0.729213
vt 0.625000 0.750000
vt 0.875000 0.000000
vt 0.586059 0.761698
vt 0.587640 0.729213
vn -0.028757 -0.999173 0.028757
vn -0.454021 -0.890250 0.036327
vn -0.454021 -0.890250 -0.036327
vn -0.028757 -0.999173 -0.028757
vn -0.890629 -0.453284 0.036243
vn -0.890629 -0.453284 -0.036243
vn -0.999193 -0.028403 0.028403
vn -0.999193 -0.028403 -0.028403
vn -0.029387 -0.029387 0.999136
vn -0.036337 -0.454105 0.890207
vn 0.036337 -0.454105 0.890207
vn 0.030891 -0.028399 0.999119
vn -0.036327 -0.890250 0.454021
vn 0.036327 -0.890250 0.454021
vn 0.028757 -0.999173 0.028757
vn -0.890629 -0.036243 0.453284
vn -0.890629 0.036243 0.453284
vn -0.999193 0.028403 0.028403
vn -0.454105 -0.036337 0.890207
vn -0.454105 0.036337 0.890207
vn -0.029693 0.028212 0.999161
vn 0.999961 -0.006272 0.006272
vn 0.913576 -0.405491 0.030921
vn 0.913576 -0.405491 -0.030921
vn 0.999961 -0.006272 -0.006272
vn 0.454021 -0.890250 0.036327
vn 0.454021 -0.890250 -0.036327
vn 0.028757 -0.999173 -0.028757
vn 0.440939 -0.021680 0.897275
vn 0.417506 0.050405 0.907275
vn 0.028225 0.029082 0.999179
vn 0.892856 -0.020415 0.449879
vn 0.883374 0.042893 0.466702
vn 0.999961 0.006272 0.006272
vn -0.890629 0.453284 0.036243
vn -0.890629 0.453284 -0.036243
vn -0.999193 0.028403 -0.028403
vn -0.329516 0.943873 0.022857
vn -0.329516 0.943873 -0.022857
vn 0.026027 0.999322 -0.026027
vn 0.026027 0.999322 0.026027
vn -0.023163 0.945978 0.323401
vn 0.028120 0.951864 0.305227
vn -0.026027 0.999322 -0.026027
vn -0.037795 0.458211 0.888040
vn 0.032728 0.467996 0.883124
vn 0.329516 0.943873 0.022857
vn 0.329516 0.943873 -0.022857
vn -0.026027 0.999322 0.026027
vn 0.913576 0.405491 0.030921
vn 0.913576 0.405491 -0.030921
vn 0.999961 0.006272 -0.006272
vn -0.890629 0.036243 -0.453284
vn -0.890629 -0.036243 -0.453284
vn -0.362081 0.026262 -0.931777
vn -0.362081 -0.026262 -0.931777
vn 0.012580 -0.012580 -0.999842
vn 0.012580 0.012580 -0.999842
vn -0.026262 0.362081 -0.931777
vn 0.026262 0.362081 -0.931777
vn -0.012580 -0.012580 -0.999842
vn -0.022857 0.943873 -0.329516
vn 0.022857 0.943873 -0.329516
vn 0.362081 0.026262 -0.931777
vn 0.362081 -0.026262 -0.931777
vn -0.012580 0.012580 -0.999842
vn 0.913576 0.030921 -0.405491
vn 0.913576 -0.030921 -0.405491
vn -0.036327 -0.890250 -0.454021
vn 0.036327 -0.890250 -0.454021
vn -0.026262 -0.362081 -0.931777
vn 0.026262 -0.362081 -0.931777
vn -0.972783 -0.163851 0.163851
vn -0.707842 -0.499480 0.499480
vn -0.499480 -0.707842 0.499480
vn -0.164899 -0.972428 0.164899
vn -0.499480 -0.499480 0.707842
vn -0.165018 -0.165018 0.972388
vn 0.164899 -0.972428 0.164899
vn 0.499480 -0.707842 0.499480
vn 0.707842 -0.499480 0.499480
vn 0.990644 -0.096499 0.096499
vn 0.499480 -0.499480 0.707842
vn 0.165018 -0.165018 0.972388
vn 0.005885 0.999965 -0.005885
vn -0.499480 0.707842 0.499480
vn -0.707842 0.499480 0.499480
vn -0.972783 0.163851 0.163851
vn -0.499480 0.499480 0.707842
vn -0.165018 0.165018 0.972388
vn 0.990644 0.096499 0.096499
vn 0.654516 0.474608 0.588520
vn 0.510805 0.676408 0.530613
vn -0.005885 0.999965 -0.005885
vn 0.433599 0.461747 0.773810
vn 0.165018 0.165018 0.972388
vn -0.037097 0.037097 -0.998623
vn -0.499480 0.499480 -0.707842
vn -0.707842 0.499480 -0.499480
vn -0.972783 0.163851 -0.163851
vn -0.499480 0.707842 -0.499480
vn 0.005885 0.999965 0.005885
vn 0.990644 0.096499 -0.096499
vn 0.707842 0.499480 -0.499480
vn 0.499480 0.499480 -0.707842
vn 0.037097 0.037097 -0.998623
vn 0.499480 0.707842 -0.499480
vn -0.005885 0.999965 0.005885
vn -0.164899 -0.972428 -0.164899
vn -0.499480 -0.707842 -0.499480
vn -0.707842 -0.499480 -0.499480
vn -0.972783 -0.163851 -0.163851
vn -0.499480 -0.499480 -0.707842
vn -0.037097 -0.037097 -0.998623
vn 0.990644 -0.096499 -0.096499
vn 0.707842 -0.499480 -0.499480
vn 0.499480 -0.707842 -0.499480
vn 0.164899 -0.972428 -0.164899
vn 0.499480 -0.499480 -0.707842
vn 0.037097 -0.037097 -0.998623
s 1
g pCube1
usemtl initialShadingGroup
f 3/1/1 2/27/2 55/71/3 63/21/4
f 2/27/2 1/25/5 56/73/6 55/71/3
f 1/26/5 9/22/7 57/8/8 56/72/6
f 6/2/9 5/30/10 16/38/11 15/16/12
f 5/30/10 4/28/13 17/40/14 16/38/11
f 4/29/13 3/1/1 18/3/15 17/39/14
f 9/22/7 8/32/16 22/44/17 21/23/18
f 8/32/16 7/31/19 23/45/20 22/44/17
f 7/31/19 6/2/9 24/5/21 23/45/20
f 12/4/22 11/34/23 64/80/24 72/12/25
f 11/35/23 10/33/26 65/81/27 64/79/24
f 10/33/26 18/3/15 66/13/28 65/81/27
f 15/16/12 14/37/29 34/53/30 33/6/31
f 14/37/29 13/36/32 35/54/33 34/53/30
f 13/36/32 12/4/22 36/7/34 35/54/33
f 21/23/18 20/42/35 40/59/36 39/24/37
f 20/43/35 19/41/38 41/60/39 40/58/36
f 19/41/38 27/17/40 42/9/41 41/60/39
f 27/17/40 26/47/42 31/51/43 30/18/44
f 26/47/42 25/46/45 32/52/46 31/51/43
f 25/46/45 24/5/21 33/6/31 32/52/46
f 30/18/44 29/50/47 52/68/48 51/10/49
f 29/50/47 28/48/50 53/70/51 52/68/48
f 28/49/50 36/7/34 54/11/52 53/69/51
f 39/24/37 38/56/53 58/75/54 57/8/8
f 38/57/53 37/55/55 59/76/56 58/74/54
f 37/55/55 45/19/57 60/14/58 59/76/56
f 45/19/57 44/62/59 49/66/60 48/20/61
f 44/62/59 43/61/62 50/67/63 49/66/60
f 43/61/62 42/9/41 51/10/49 50/67/63
f 48/20/61 47/65/64 70/84/65 69/15/66
f 47/65/64 46/63/67 71/86/68 70/84/65
f 46/64/67 54/11/52 72/12/25 71/85/68
f 63/21/4 62/78/69 67/82/70 66/13/28
f 62/78/69 61/77/71 68/83/72 67/82/70
f 61/77/71 60/14/58 69/15/66 68/83/72
f 6/2/9 15/16/12 33/6/31 24/5/21
f 27/17/40 30/18/44 51/10/49 42/9/41
f 45/19/57 48/20/61 69/15/66 60/14/58
f 63/21/4 66/13/28 18/3/15 3/1/1
f 12/4/22 72/12/25 54/11/52 36/7/34
f 57/8/8 9/22/7 21/23/18 39/24/37
f 8/32/16 9/22/7 1/26/5 73/87/73
f 73/88/74 1/25/5 2/27/2 74/90/75
f 2/27/2 3/1/1 4/29/13 74/90/76
f 74/89/75 4/28/13 5/30/10 75/91/77
f 5/30/10 6/2/9 7/31/19 75/91/78
f 75/91/77 7/31/19 8/32/16 73/87/74
f 73/87/74 74/89/75 75/91/77
f 17/39/14 18/3/15 10/33/26 76/93/79
f 76/93/80 10/33/26 11/35/23 77/95/81
f 11/34/23 12/4/22 13/36/32 77/94/82
f 77/94/81 13/36/32 14/37/29 78/96/83
f 14/37/29 15/16/12 16/38/11 78/96/84
f 78/96/83 16/38/11 17/40/14 76/92/80
f 76/92/80 77/94/81 78/96/83
f 26/47/42 27/17/40 19/41/38 79/97/85
f 79/97/86 19/41/38 20/43/35 80/98/87
f 20/42/35 21/23/18 22/44/17 80/98/88
f 80/98/87 22/44/17 23/45/20 81/99/89
f 23/45/20 24/5/21 25/46/45 81/99/90
f 81/99/89 25/46/45 26/47/42 79/97/86
f 79/97/86 80/98/87 81/99/89
f 35/54/33 36/7/34 28/49/50 82/100/91
f 82/100/92 28/48/50 29/50/47 83/101/93
f 29/50/47 30/18/44 31/51/43 83/101/94
f 83/101/93 31/51/43 32/52/46 84/102/95
f 32/52/46 33/6/31 34/53/30 84/102/96
f 84/102/95 34/53/30 35/54/33 82/100/92
f 82/100/92 83/101/93 84/102/95
f 44/62/59 45/19/57 37/55/55 85/103/97
f 85/103/98 37/55/55 38/57/53 86/104/99
f 38/56/53 39/24/37 40/59/36 86/105/100
f 86/104/99 40/58/36 41/60/39 87/106/101
f 41/60/39 42/9/41 43/61/62 87/106/102
f 87/106/101 43/61/62 44/62/59 85/103/98
f 85/103/98 86/104/99 87/106/101
f 53/69/51 54/11/52 46/64/67 88/108/103
f 88/107/104 46/63/67 47/65/64 89/109/105
f 47/65/64 48/20/61 49/66/60 89/109/106
f 89/109/105 49/66/60 50/67/63 90/110/107
f 50/67/63 51/10/49 52/68/48 90/110/108
f 90/110/107 52/68/48 53/70/51 88/107/104
f 88/107/104 89/109/105 90/110/107
f 62/78/69 63/21/4 55/71/3 91/111/109
f 91/111/110 55/71/3 56/73/6 92/112/111
f 56/72/6 57/8/8 58/75/54 92/113/112
f 92/112/111 58/74/54 59/76/56 93/114/113
f 59/76/56 60/14/58 61/77/71 93/114/114
f 93/114/113 61/77/71 62/78/69 91/111/110
f 91/111/110 92/112/111 93/114/113
f 71/85/68 72/12/25 64/80/24 94/116/115
f 94/115/116 64/79/24 65/81/27 95/117/117
f 65/81/27 66/13/28 67/82/70 95/117/118
f 95/117/117 67/82/70 68/83/72 96/118/119
f 68/83/72 69/15/66 70/84/65 96/118/120
f 96/118/119 70/84/65 71/86/68 94/115/116
f 94/115/116 95/117/117 96/118/119
